<?xml version="1.0" encoding="utf-8"?>
<!-- Generator: Adobe Illustrator 15.1.0, SVG Export Plug-In . SVG Version: 6.00 Build 0)  -->
<!DOCTYPE svg PUBLIC "-//W3C//DTD SVG 1.1//EN" "http://www.w3.org/Graphics/SVG/1.1/DTD/svg11.dtd">
<svg version="1.1" id="top-right" xmlns="http://www.w3.org/2000/svg" xmlns:xlink="http://www.w3.org/1999/xlink" x="0px" y="0px"
	 width="30px" height="30px" viewBox="0 0 30 30" enable-background="new 0 0 30 30" xml:space="preserve">
<g id="loop">
	<path fill="#330000" d="M0-0.1c1.8-0.177,3.6-0.271,5.4-0.395C7.2-0.596,9-0.669,10.8-0.734C14.4-0.838,18-0.916,21.6-0.89
		l0.894,0.006L22.489,0c-0.01,2.281-0.12,4.563-0.231,6.844c-0.059,1.125-0.068,2.307-0.28,3.479
		c-0.203,1.165-0.553,2.301-1.026,3.376c-0.965,2.141-2.518,4.022-4.518,5.272c-0.995,0.631-2.099,1.104-3.294,1.328
		c-0.599,0.103-1.226,0.142-1.872,0.008c-0.321-0.067-0.648-0.179-0.955-0.371c-0.318-0.194-0.564-0.463-0.759-0.731
		c-1.477-2.247-1.037-5.158,0.417-7.219c1.469-2.121,3.838-3.323,6.151-3.937c2.32-0.636,4.791-0.733,7.035-0.715
		C25.438,7.319,27.719,7.327,30,7.371l1.04,0.02l-0.013,1.007c-0.044,3.601-0.156,7.201-0.295,10.801
		C30.564,22.8,30.401,26.399,30.1,30H29.9c-0.302-3.601-0.465-7.2-0.633-10.801c-0.139-3.601-0.251-7.201-0.295-10.801L30,9.425
		c-2.281,0.043-4.563,0.051-6.844,0.037c-1.155,0.009-2.267-0.048-3.348,0.019c-1.091,0.059-2.17,0.195-3.214,0.438
		c-2.072,0.486-4.046,1.439-5.313,3.033c-0.631,0.792-1.049,1.74-1.227,2.738c-0.17,0.988-0.073,2.082,0.406,2.901
		c0.401,0.795,1.511,0.989,2.564,0.883c1.068-0.098,2.118-0.511,3.072-1.057c1.905-1.123,3.409-2.925,4.19-4.996
		c0.402-1.032,0.622-2.126,0.704-3.224c0.095-1.093-0.006-2.201-0.05-3.355C20.83,4.563,20.72,2.281,20.71,0l0.89,0.89
		C18,0.916,14.4,0.838,10.8,0.734C9,0.669,7.2,0.596,5.4,0.495C3.6,0.372,1.8,0.277,0,0.1V-0.1z"/>
</g>
</svg>
