<?xml version="1.0" encoding="utf-8"?>
<!-- Generator: Adobe Illustrator 15.1.0, SVG Export Plug-In . SVG Version: 6.00 Build 0)  -->
<!DOCTYPE svg PUBLIC "-//W3C//DTD SVG 1.1//EN" "http://www.w3.org/Graphics/SVG/1.1/DTD/svg11.dtd">
<svg version="1.1" id="bottom-right" xmlns="http://www.w3.org/2000/svg" xmlns:xlink="http://www.w3.org/1999/xlink" x="0px"
	 y="0px" width="30px" height="30px" viewBox="0 0 30 30" enable-background="new 0 0 30 30" xml:space="preserve">
<g id="loop">
	<path fill="#330000" d="M0,29.9c1.8-0.178,3.6-0.272,5.4-0.396c1.8-0.102,3.6-0.174,5.4-0.238c3.6-0.105,7.2-0.183,10.8-0.156
		L20.71,30c0.01-2.281,0.12-4.563,0.231-6.844c0.044-1.153,0.145-2.263,0.05-3.354c-0.082-1.098-0.302-2.192-0.704-3.224
		c-0.781-2.071-2.285-3.873-4.19-4.996c-0.954-0.546-2.004-0.959-3.072-1.057c-1.053-0.106-2.163,0.088-2.564,0.882
		c-0.479,0.82-0.577,1.913-0.406,2.901c0.178,0.999,0.596,1.947,1.227,2.739c1.268,1.594,3.241,2.546,5.314,3.033
		c1.043,0.242,2.122,0.379,3.213,0.437c1.081,0.067,2.192,0.01,3.348,0.02c2.281-0.014,4.563-0.007,6.844,0.037l-1.027,1.027
		c0.044-3.601,0.156-7.201,0.295-10.801C29.436,7.201,29.599,3.6,29.9,0H30.1c0.302,3.6,0.465,7.201,0.633,10.801
		c0.139,3.6,0.251,7.2,0.295,10.801l0.013,1.008L30,22.629c-2.281,0.044-4.563,0.051-6.844,0.037
		c-2.244,0.018-4.715-0.08-7.035-0.715c-2.313-0.614-4.681-1.816-6.151-3.938c-1.454-2.061-1.894-4.972-0.417-7.219
		c0.196-0.269,0.442-0.538,0.76-0.732c0.306-0.192,0.634-0.303,0.955-0.371c0.646-0.133,1.273-0.094,1.872,0.008
		c1.196,0.224,2.299,0.698,3.294,1.329c2,1.25,3.553,3.13,4.518,5.272c0.474,1.075,0.823,2.211,1.026,3.376
		c0.212,1.173,0.222,2.354,0.28,3.479c0.111,2.281,0.222,4.563,0.231,6.844l0.004,0.883L21.6,30.89c-3.6,0.026-7.2-0.051-10.8-0.156
		c-1.8-0.064-3.6-0.137-5.4-0.238C3.6,30.372,1.8,30.277,0,30.1V29.9z"/>
</g>
</svg>
