<?xml version="1.0" encoding="utf-8"?>
<!-- Generator: Adobe Illustrator 15.1.0, SVG Export Plug-In . SVG Version: 6.00 Build 0)  -->
<!DOCTYPE svg PUBLIC "-//W3C//DTD SVG 1.1//EN" "http://www.w3.org/Graphics/SVG/1.1/DTD/svg11.dtd">
<svg version="1.1" id="bottom-left" xmlns="http://www.w3.org/2000/svg" xmlns:xlink="http://www.w3.org/1999/xlink" x="0px"
	 y="0px" width="30px" height="30px" viewBox="0 0 30 30" enable-background="new 0 0 30 30" xml:space="preserve">
<g id="loop" opacity="0.75">
	<path fill="#D2C6C2" d="M30,30.1c-1.8,0.178-3.6,0.272-5.4,0.396c-1.8,0.102-3.6,0.174-5.397,0.238
		C15.6,30.839,12,30.916,8.4,30.891l-0.894-0.008L7.51,30c0.01-2.281,0.121-4.563,0.231-6.844c0.059-1.127,0.068-2.307,0.281-3.479
		c0.203-1.165,0.552-2.301,1.026-3.376c0.965-2.142,2.518-4.022,4.519-5.272c0.994-0.631,2.098-1.104,3.292-1.329
		c0.6-0.102,1.228-0.141,1.873-0.008c0.319,0.067,0.646,0.179,0.955,0.371c0.315,0.194,0.563,0.462,0.76,0.731
		c1.477,2.247,1.035,5.159-0.418,7.22c-1.469,2.12-3.838,3.321-6.151,3.938c-2.32,0.636-4.791,0.732-7.035,0.716
		C4.563,22.68,2.281,22.673,0,22.629l-1.04-0.02l0.012-1.008C-0.984,18-0.872,14.4-0.733,10.8C-0.565,7.201-0.401,3.6-0.1,0h0.2
		c0.301,3.6,0.465,7.201,0.632,10.801c0.139,3.6,0.251,7.2,0.295,10.801L0,20.574c2.281-0.045,4.563-0.051,6.844-0.037
		c1.155-0.01,2.267,0.048,3.348-0.02c1.09-0.06,2.169-0.194,3.213-0.438c2.073-0.487,4.046-1.438,5.314-3.033
		c0.631-0.792,1.049-1.74,1.229-2.739c0.17-0.988,0.071-2.081-0.406-2.901c-0.399-0.794-1.513-0.988-2.563-0.882
		c-1.066,0.098-2.119,0.511-3.072,1.057c-1.905,1.123-3.41,2.924-4.191,4.996c-0.403,1.03-0.623,2.125-0.704,3.223
		c-0.095,1.095,0.005,2.202,0.05,3.354C9.169,25.438,9.279,27.719,9.29,30L8.4,29.109c3.6-0.025,7.2,0.052,10.8,0.156
		c1.8,0.063,3.6,0.137,5.399,0.237C26.4,29.628,28.2,29.723,30,29.9V30.1z"/>
</g>
</svg>
