<?xml version="1.0" encoding="utf-8"?>
<!-- Generator: Adobe Illustrator 15.1.0, SVG Export Plug-In . SVG Version: 6.00 Build 0)  -->
<!DOCTYPE svg PUBLIC "-//W3C//DTD SVG 1.1//EN" "http://www.w3.org/Graphics/SVG/1.1/DTD/svg11.dtd">
<svg version="1.1" id="bottom-left" xmlns="http://www.w3.org/2000/svg" xmlns:xlink="http://www.w3.org/1999/xlink" x="0px"
	 y="0px" width="30px" height="30px" viewBox="0 0 30 30" enable-background="new 0 0 30 30" xml:space="preserve">
<g id="loop">
	<path fill="#330000" d="M30,30.1c-1.8,0.178-3.6,0.272-5.4,0.396c-1.8,0.102-3.6,0.174-5.399,0.238
		C15.6,30.839,12,30.916,8.4,30.89l-0.894-0.007L7.51,30c0.01-2.281,0.121-4.563,0.231-6.844c0.059-1.126,0.068-2.307,0.281-3.479
		c0.203-1.165,0.552-2.301,1.026-3.376c0.965-2.142,2.518-4.022,4.519-5.272c0.994-0.631,2.098-1.104,3.293-1.329
		c0.599-0.102,1.227-0.141,1.872-0.008c0.321,0.067,0.648,0.179,0.955,0.371c0.317,0.194,0.563,0.462,0.76,0.731
		c1.477,2.247,1.036,5.159-0.417,7.219c-1.47,2.121-3.839,3.322-6.152,3.937c-2.32,0.636-4.791,0.733-7.035,0.716
		C4.563,22.68,2.281,22.673,0,22.629l-1.04-0.02l0.012-1.008c0.044-3.601,0.156-7.201,0.295-10.801C-0.565,7.201-0.401,3.6-0.1,0
		h0.2c0.301,3.6,0.465,7.201,0.632,10.801c0.139,3.6,0.251,7.2,0.295,10.801L0,20.574c2.281-0.044,4.563-0.051,6.844-0.037
		c1.155-0.01,2.267,0.048,3.348-0.02c1.09-0.058,2.169-0.194,3.213-0.437c2.073-0.487,4.046-1.44,5.314-3.033
		c0.631-0.792,1.049-1.74,1.228-2.739c0.17-0.988,0.073-2.081-0.406-2.901c-0.401-0.794-1.512-0.988-2.564-0.882
		c-1.067,0.098-2.118,0.511-3.072,1.057c-1.905,1.123-3.41,2.924-4.191,4.996c-0.403,1.031-0.623,2.125-0.704,3.223
		c-0.095,1.093,0.005,2.202,0.05,3.355C9.169,25.438,9.279,27.719,9.29,30L8.4,29.11c3.6-0.026,7.2,0.051,10.8,0.156
		c1.8,0.064,3.6,0.137,5.399,0.238C26.4,29.628,28.2,29.723,30,29.9V30.1z"/>
</g>
</svg>
