<?xml version="1.0" encoding="utf-8"?>
<!-- Generator: Adobe Illustrator 15.1.0, SVG Export Plug-In . SVG Version: 6.00 Build 0)  -->
<!DOCTYPE svg PUBLIC "-//W3C//DTD SVG 1.1//EN" "http://www.w3.org/Graphics/SVG/1.1/DTD/svg11.dtd">
<svg version="1.1" id="top-left" xmlns="http://www.w3.org/2000/svg" xmlns:xlink="http://www.w3.org/1999/xlink" x="0px" y="0px"
	 width="30px" height="30px" viewBox="0 0 30 30" enable-background="new 0 0 30 30" xml:space="preserve">
<g id="loop">
	<path fill="#330000" d="M30,0.1c-1.8,0.177-3.6,0.271-5.4,0.395C22.8,0.596,21,0.669,19.2,0.734C15.6,0.838,12,0.916,8.4,0.89
		L9.29,0c-0.01,2.281-0.121,4.563-0.231,6.844c-0.044,1.154-0.145,2.262-0.05,3.355c0.082,1.098,0.302,2.192,0.704,3.224
		c0.781,2.071,2.286,3.873,4.191,4.996c0.954,0.546,2.004,0.958,3.072,1.057c1.053,0.106,2.163-0.088,2.564-0.882
		c0.479-0.82,0.576-1.913,0.406-2.901c-0.179-0.999-0.597-1.947-1.228-2.739c-1.268-1.594-3.241-2.546-5.314-3.033
		c-1.043-0.243-2.123-0.379-3.213-0.438C9.11,9.414,7.999,9.472,6.844,9.462C4.563,9.477,2.281,9.469,0,9.425l1.027-1.027
		c-0.044,3.601-0.156,7.201-0.295,10.801C0.565,22.8,0.401,26.399,0.1,30h-0.2c-0.301-3.601-0.465-7.2-0.632-10.801
		c-0.139-3.601-0.251-7.201-0.295-10.801L-1.04,7.391L0,7.371c2.281-0.043,4.563-0.051,6.844-0.037
		c2.245-0.018,4.715,0.08,7.035,0.715c2.313,0.614,4.682,1.816,6.151,3.938c0.728,1.04,1.209,2.269,1.303,3.538
		c0.09,1.259-0.11,2.573-0.886,3.681c-0.195,0.27-0.441,0.538-0.76,0.731c-0.307,0.192-0.634,0.304-0.955,0.371
		c-0.646,0.134-1.273,0.095-1.872-0.008c-1.195-0.224-2.299-0.697-3.293-1.328c-2.001-1.25-3.553-3.13-4.519-5.272
		c-0.474-1.076-0.823-2.211-1.026-3.376C7.81,9.15,7.801,7.969,7.742,6.844C7.631,4.563,7.521,2.281,7.51,0L7.506-0.883L8.4-0.89
		c3.6-0.026,7.2,0.051,10.8,0.156C21-0.669,22.8-0.596,24.6-0.495C26.4-0.372,28.2-0.277,30-0.1V0.1z"/>
</g>
</svg>
