<?xml version="1.0" encoding="utf-8"?>
<!-- Generator: Adobe Illustrator 15.1.0, SVG Export Plug-In . SVG Version: 6.00 Build 0)  -->
<!DOCTYPE svg PUBLIC "-//W3C//DTD SVG 1.1//EN" "http://www.w3.org/Graphics/SVG/1.1/DTD/svg11.dtd">
<svg version="1.1" id="Layer_1" xmlns="http://www.w3.org/2000/svg" xmlns:xlink="http://www.w3.org/1999/xlink" x="0px" y="0px"
	 width="60px" height="30px" viewBox="35.5 75.5 60 30" enable-background="new 35.5 75.5 60 30" xml:space="preserve">
<g>
	<path fill="#D2C6C2" d="M49.071,83.873c-3.194,0.125-7.163-0.164-10.026-0.841c-0.126-0.571-0.296-0.679-0.138-1.263
		c2.411-0.118,4.91,0.872,7.418,1.122c-1.02-0.712-3.124-0.876-4.945-1.263c-1.434-0.305-4.268-0.508-2.885-2.525
		c2.758,0.831,5.12,2.066,7.83,2.946c-1.937-1.577-6-2.196-8.105-4.067c-0.007-0.615,0.455-0.752,0.549-1.262
		c0.099-0.53-0.973-0.586-0.412-1.123c0.122-0.086,0.245-0.169,0.274,0c2.823,1.776,5.604,3.646,8.517,5.611
		C47.979,81.768,49.426,82.357,49.071,83.873z"/>
	<path fill="#D2C6C2" d="M94.262,81.769c-0.236,0.38-0.95,0.818-1.511,0.42c-0.705,1.104-1.171,2.453-2.473,2.946
		c0.464,1.665,0.896,3.99,0.824,5.75c1.014,0.403,2.317-0.477,3.434,0c2.044,2.035,0.5,6.416-1.512,7.293
		c-0.808-2.23,2.164-2.985,0.825-5.33c-2.434-0.563-3.975,1.915-6.318,2.244c-2.379,0.335-4.216-0.524-6.318-1.122
		c-0.105-0.527,0.167-0.67,0.138-1.122c-1.017,0.263-0.805,1.178-1.374,1.964c-2.14,2.95-8.331,5.215-5.493,10.658
		c-0.564,0.015-1.127,0.028-1.512-0.14c-2.203-4.603,3.177-8.575,1.512-12.622c-0.548,2.153-1.514,3.878-4.122,3.928
		c0.625-1.094,1.375-2.059,1.375-3.788c-0.813-0.479-2.127-0.447-2.748-1.121c-0.651,0.176-0.844,0.821-1.374,1.121
		c0,0.795,0,1.589,0,2.385c0.964,1.63,1.775,2.647,1.512,5.049c-0.791,7.188-12.975,6.853-11.813-1.824
		c0.538-4.012,5.446-6.582,9.34-3.925c0.314-0.287,0.049-1.166,0.138-1.685c-4.896-0.723-8.922,0.928-10.164,5.049
		c-1.749-0.123-3.807,0.526-5.22-0.14c-0.055-5.79-6.41-10.354-12.087-7.293c-0.666,0.359-1.406,1.171-2.198,0.842
		c-0.263-0.908,1.029-1.434,1.786-1.823c2.516-1.298,7.164-1.323,9.478,0.562c0.012-0.906-1.294-1.24-2.198-1.543
		c-1.002-0.336-2.256-0.632-3.434-0.562c-0.488-0.996-1.208-1.758-1.099-3.365c3.406,0.409,7.102-0.72,9.34,0.42
		c3.468,1.768,1.163,7.834,2.61,11.642c2.153,0.899,2.425-0.685,3.158-1.824c0.887-1.375,2.823-2.332,3.571-3.365
		c0.282-0.975,0.074-2.449,0.138-3.646c-0.307-0.105-0.897-0.026-1.373-0.281c-0.641-0.763-1.162-2.347-0.963-3.506
		c1.335-0.193,1.131,1.184,1.374,2.104c1.078,0.576,2.528,0.007,3.846,0.421c1.157,0.923-0.093,4.304,1.099,5.189
		c2.626,0.618,3.617-0.802,4.67-1.543c0.767,0.019,0.247,0.796,0.138,1.122c0.684,0.329,1.397,0.629,2.335,0.701
		c0.358-2.3,0.961-4.349,3.571-4.348c-0.682,0.81-1.761,3.268-0.688,4.488c0.466-0.313,0.053-1.013,0.138-1.685
		c0.527-4.212,5.29-3.612,9.478-2.944c1.488-1.692,0.438-4.439,0.688-6.592c0.283-2.46,1.896-4.548,4.943-4.349
		c0.204-0.072,0.346-0.207,0.55-0.279c0.092,0,0.183,0,0.274,0c-0.022,0.396-0.252,0.585-0.274,0.981
		C91.313,79.078,93.755,79.434,94.262,81.769z M90.278,84.574c0.83-0.695,1.454-1.6,1.923-2.665
		c-0.618-0.304-1.854,0.023-2.473-0.28C89.711,82.814,89.811,83.884,90.278,84.574z M61.159,94.952
		c0.444,1.229,1.072,2.272,1.785,3.226c0-1.214,0-2.431,0-3.646C62.209,94.528,61.772,94.832,61.159,94.952z M63.631,98.178
		c0.48-1.146,1.251-1.995,1.648-3.226c-0.558-0.177-1.064-0.408-1.785-0.42C63.585,95.701,63.312,97.241,63.631,98.178z
		 M59.235,96.775c0.999,0.433,2.088,1.515,3.022,1.543c-0.737-0.883-1.031-2.221-1.923-2.945
		C60.069,95.944,59.388,96.089,59.235,96.775z M64.182,98.459c1.116-0.448,1.954-1.184,3.021-1.684
		c-0.259-0.67-0.785-1.067-1.373-1.402C65.375,96.499,64.658,97.357,64.182,98.459z M58.412,99.159
		c1.146-0.091,2.654,0.188,3.571-0.14c-1.175-0.437-1.984-1.245-3.16-1.683C58.621,97.878,58.396,98.396,58.412,99.159z
		 M67.339,97.337c-0.892,0.679-2.002,1.135-2.884,1.822c1.189,0,2.38,0,3.571,0C67.964,98.382,67.938,97.567,67.339,97.337z
		 M58.961,101.685c0.885-0.781,2.179-1.142,3.022-1.963c-1.19,0-2.382,0-3.571,0C58.396,100.578,58.563,101.248,58.961,101.685z
		 M67.614,101.685c0.126-0.665,0.451-1.129,0.412-1.963c-1.146,0.092-2.654-0.187-3.571,0.14
		C65.558,100.42,66.522,101.115,67.614,101.685z M59.235,102.104c0.223,0.71,0.68,1.177,1.374,1.403
		c0.403-1.039,1.461-2.154,1.512-3.086C61.22,101.045,60.261,101.608,59.235,102.104z M65.829,103.508
		c0.629-0.294,1.086-0.761,1.373-1.403c-1.117-0.448-1.955-1.183-3.021-1.683C64.62,101.563,65.339,102.418,65.829,103.508z
		 M61.021,103.929c0.614,0.166,1.068,0.498,1.923,0.42c-0.091-1.169,0.182-2.711-0.138-3.646
		C62.283,101.851,61.647,102.885,61.021,103.929z M63.494,104.349c0.803,0.072,1.24-0.229,1.785-0.42
		c-0.465-1.208-1.142-2.2-1.785-3.226C63.494,101.918,63.494,103.133,63.494,104.349z"/>
	<path fill="#D2C6C2" d="M42.066,90.324c5.458-0.77,10.283,4.507,8.104,10.379c-2.564,6.915-13.441,6.147-14.559-1.403
		C34.859,94.221,38.022,90.895,42.066,90.324z M40.144,92.147c0.973,1.344,1.604,3.038,2.609,4.348c0-1.73,0-3.46,0-5.188
		C41.753,91.453,40.71,91.558,40.144,92.147z M43.439,96.637c0.836-1.579,1.722-3.105,2.61-4.629
		c-0.827-0.278-1.559-0.652-2.61-0.701C43.453,93.003,43.421,95.4,43.439,96.637z M37.671,94.392c1.604,0.606,3.09,2.08,4.533,2.384
		c-1.069-1.293-1.573-3.162-2.747-4.348C38.821,93.041,38.088,93.555,37.671,94.392z M44.127,96.915
		c1.388-0.871,2.808-1.714,4.258-2.523c-0.367-0.935-1.008-1.588-1.923-1.964C45.813,93.964,44.483,95.55,44.127,96.915z
		 M36.847,97.617c0.954-0.354,4.187,0.029,4.944-0.141c-1.525-0.826-2.836-1.872-4.533-2.524
		C37.144,95.772,36.427,96.716,36.847,97.617z M48.522,94.952c-1.273,0.989-2.97,1.55-4.121,2.665c1.137-0.21,3.928-0.206,5.082,0
		C49.366,96.521,49.35,95.323,48.522,94.952z M37.259,100.843c1.588-0.81,3.108-1.688,4.533-2.665c-1.694,0-3.388,0-5.083,0
		C36.6,99.365,37.113,99.916,37.259,100.843z M48.797,100.843c0.364-0.751,0.648-1.581,0.687-2.665
		c-1.649,0.094-3.662-0.187-5.082,0.141C45.936,99.089,47.285,100.049,48.797,100.843z M37.671,101.544
		c0.624,0.625,1.137,1.363,1.923,1.822c0.768-1.506,2.055-3.229,2.472-4.628C40.715,99.79,38.955,100.424,37.671,101.544z
		 M46.462,103.366c0.842-0.495,1.649-1.026,1.923-2.104c-1.571-0.732-2.924-1.688-4.395-2.524
		C44.74,100.358,45.752,101.708,46.462,103.366z M40.144,103.787c0.907,0.148,1.446,0.674,2.609,0.562
		c-0.091-1.685,0.184-3.738-0.137-5.189C41.918,100.832,40.871,102.146,40.144,103.787z M43.439,104.349
		c1.089,0.084,1.695-0.326,2.473-0.562c-0.635-1.689-1.558-3.084-2.473-4.487C43.439,100.982,43.439,102.666,43.439,104.349z"/>
	<path fill="#D2C6C2" d="M82.586,94.952c-0.208,2.028-3.032,3.242-3.434,5.33c-0.411,2.136,0.616,3.702,1.648,5.05
		c-0.354,0.306-1.398,0.124-1.786,0c-1.815-2.06-1.405-6.057-0.275-8.557c0.851-0.581,1.578-1.287,2.062-2.243
		C81.597,94.466,81.769,95.039,82.586,94.952z"/>
	<path fill="#D2C6C2" d="M88.905,95.233c-1.27,2.319-3.382,7.213-0.962,10.237c-0.598,0.003-1.236,0.047-1.649-0.139
		c-1.435-2.554-0.628-6.987,0.138-9.678C87.416,95.677,88.324,95.622,88.905,95.233z"/>
</g>
</svg>
