<?xml version="1.0" encoding="utf-8"?>
<!-- Generator: Adobe Illustrator 15.1.0, SVG Export Plug-In . SVG Version: 6.00 Build 0)  -->
<!DOCTYPE svg PUBLIC "-//W3C//DTD SVG 1.1//EN" "http://www.w3.org/Graphics/SVG/1.1/DTD/svg11.dtd">
<svg version="1.1" id="top-left" xmlns="http://www.w3.org/2000/svg" xmlns:xlink="http://www.w3.org/1999/xlink" x="0px" y="0px"
	 width="30px" height="30px" viewBox="0 0 30 30" enable-background="new 0 0 30 30" xml:space="preserve">
<g id="loop" opacity="0.75">
	<path fill="#D2C6C2" d="M30,0.1c-1.8,0.177-3.6,0.271-5.4,0.395C22.8,0.596,21,0.669,19.2,0.734C15.6,0.838,12,0.916,8.4,0.89
		L9.29,0C9.28,2.281,9.169,4.563,9.059,6.844c-0.044,1.154-0.145,2.262-0.05,3.355c0.082,1.098,0.302,2.192,0.704,3.224
		c0.781,2.071,2.286,3.873,4.191,4.996c0.954,0.546,2.004,0.958,3.073,1.058c1.053,0.105,2.162-0.088,2.563-0.883
		c0.479-0.82,0.576-1.912,0.405-2.9c-0.178-1-0.596-1.946-1.229-2.738c-1.268-1.594-3.241-2.546-5.314-3.033
		C12.36,9.679,11.28,9.543,10.19,9.484c-1.08-0.07-2.191-0.012-3.346-0.022C4.563,9.477,2.281,9.469,0,9.425l1.027-1.027
		C0.983,11.999,0.871,15.6,0.732,19.199C0.565,22.8,0.401,26.398,0.1,30h-0.2c-0.301-3.602-0.465-7.2-0.632-10.801
		c-0.139-3.602-0.251-7.201-0.295-10.801L-1.04,7.391L0,7.371C2.281,7.328,4.563,7.32,6.844,7.334
		c2.245-0.018,4.715,0.08,7.035,0.715c2.313,0.614,4.682,1.816,6.15,3.938c0.729,1.04,1.21,2.269,1.304,3.539
		c0.09,1.26-0.11,2.572-0.886,3.682c-0.195,0.271-0.441,0.538-0.76,0.73c-0.309,0.191-0.636,0.305-0.955,0.371
		c-0.646,0.133-1.273,0.094-1.873-0.009c-1.194-0.224-2.298-0.696-3.292-1.327c-2.001-1.25-3.553-3.131-4.519-5.271
		c-0.474-1.076-0.823-2.211-1.026-3.376C7.81,9.15,7.801,7.969,7.742,6.844C7.631,4.563,7.521,2.281,7.51,0L7.506-0.883L8.4-0.89
		c3.6-0.026,7.2,0.051,10.8,0.156C21-0.669,22.8-0.596,24.6-0.495C26.4-0.372,28.2-0.277,30-0.1V0.1z"/>
</g>
</svg>
