<?xml version="1.0" encoding="utf-8"?>
<!-- Generator: Adobe Illustrator 15.1.0, SVG Export Plug-In . SVG Version: 6.00 Build 0)  -->
<!DOCTYPE svg PUBLIC "-//W3C//DTD SVG 1.1//EN" "http://www.w3.org/Graphics/SVG/1.1/DTD/svg11.dtd">
<svg version="1.1" id="bottom-right" xmlns="http://www.w3.org/2000/svg" xmlns:xlink="http://www.w3.org/1999/xlink" x="0px"
	 y="0px" width="30px" height="30px" viewBox="0 0 30 30" enable-background="new 0 0 30 30" xml:space="preserve">
<g id="loop" opacity="0.75">
	<path fill="#D2C6C2" d="M0,29.9c1.8-0.178,3.6-0.272,5.4-0.396c1.8-0.102,3.6-0.174,5.4-0.238c3.6-0.104,7.2-0.183,10.8-0.156
		L20.71,30c0.011-2.281,0.12-4.563,0.231-6.844c0.043-1.153,0.145-2.264,0.05-3.354c-0.082-1.098-0.302-2.192-0.704-3.224
		c-0.781-2.071-2.285-3.873-4.189-4.996c-0.955-0.546-2.005-0.959-3.073-1.057c-1.053-0.106-2.163,0.088-2.564,0.882
		c-0.479,0.82-0.577,1.913-0.406,2.901c0.178,0.999,0.596,1.947,1.227,2.739c1.268,1.594,3.241,2.546,5.313,3.033
		c1.043,0.242,2.121,0.379,3.213,0.438c1.082,0.066,2.191,0.01,3.349,0.021c2.28-0.015,4.563-0.009,6.844,0.037l-1.026,1.026
		C29.018,18,29.13,14.4,29.27,10.8C29.436,7.201,29.6,3.6,29.9,0H30.1c0.303,3.6,0.465,7.201,0.633,10.801
		c0.141,3.6,0.252,7.2,0.295,10.801l0.015,1.008L30,22.629c-2.281,0.044-4.563,0.051-6.844,0.037
		c-2.244,0.018-4.715-0.08-7.035-0.715c-2.313-0.614-4.681-1.816-6.151-3.938c-1.454-2.063-1.894-4.974-0.417-7.221
		c0.196-0.269,0.442-0.538,0.76-0.732c0.306-0.192,0.634-0.303,0.955-0.371c0.646-0.133,1.273-0.094,1.872,0.008
		c1.196,0.224,2.299,0.698,3.293,1.329c2,1.25,3.553,3.13,4.519,5.272c0.474,1.075,0.823,2.211,1.026,3.376
		c0.211,1.175,0.222,2.354,0.278,3.479c0.111,2.281,0.224,4.563,0.231,6.845l0.004,0.883L21.6,30.891
		c-3.6,0.025-7.2-0.052-10.8-0.156C9,30.67,7.2,30.598,5.4,30.496C3.6,30.372,1.8,30.277,0,30.1V29.9z"/>
</g>
</svg>
