<?xml version="1.0" encoding="utf-8"?>
<!-- Generator: Adobe Illustrator 15.1.0, SVG Export Plug-In . SVG Version: 6.00 Build 0)  -->
<!DOCTYPE svg PUBLIC "-//W3C//DTD SVG 1.1//EN" "http://www.w3.org/Graphics/SVG/1.1/DTD/svg11.dtd">
<svg version="1.1" id="Layer_1" xmlns="http://www.w3.org/2000/svg" xmlns:xlink="http://www.w3.org/1999/xlink" x="0px" y="0px"
	 width="60px" height="30px" viewBox="15.5 65.5 60 30" enable-background="new 15.5 65.5 60 30" xml:space="preserve">
<g>
	<path fill="#D2C6C2" d="M29.07,73.874c-3.193,0.125-7.162-0.164-10.025-0.841c-0.126-0.571-0.296-0.679-0.138-1.263
		c2.411-0.119,4.909,0.871,7.418,1.121c-1.021-0.711-3.124-0.875-4.945-1.263c-1.435-0.305-4.269-0.508-2.885-2.524
		c2.758,0.83,5.12,2.065,7.83,2.945c-1.937-1.576-6-2.195-8.104-4.066c-0.008-0.615,0.454-0.752,0.549-1.262
		c0.099-0.531-0.974-0.587-0.412-1.123c0.121-0.087,0.244-0.17,0.273,0c2.823,1.775,5.604,3.646,8.518,5.61
		C27.979,71.769,29.426,72.358,29.07,73.874z"/>
	<path fill="#D2C6C2" d="M74.262,71.771c-0.236,0.379-0.949,0.817-1.511,0.42c-0.705,1.104-1.171,2.453-2.474,2.945
		c0.465,1.665,0.896,3.99,0.824,5.75c1.015,0.403,2.317-0.477,3.435,0c2.044,2.035,0.5,6.416-1.513,7.293
		c-0.808-2.229,2.164-2.984,0.826-5.33c-2.435-0.563-3.976,1.916-6.318,2.244c-2.379,0.335-4.217-0.523-6.318-1.121
		c-0.105-0.527,0.167-0.671,0.139-1.123c-1.018,0.264-0.806,1.178-1.375,1.965c-2.14,2.949-8.33,5.215-5.492,10.657
		c-0.564,0.015-1.127,0.028-1.512-0.14c-2.203-4.604,3.176-8.575,1.512-12.622c-0.549,2.153-1.514,3.878-4.123,3.928
		c0.625-1.094,1.375-2.059,1.375-3.788c-0.813-0.479-2.127-0.447-2.748-1.121c-0.65,0.176-0.844,0.821-1.373,1.121
		c0,0.795,0,1.59,0,2.385c0.964,1.631,1.775,2.647,1.512,5.05c-0.791,7.188-12.975,6.853-11.813-1.824
		c0.537-4.013,5.445-6.582,9.34-3.925c0.313-0.287,0.049-1.166,0.138-1.686c-4.896-0.723-8.922,0.928-10.164,5.049
		c-1.749-0.123-3.808,0.526-5.22-0.14c-0.055-5.79-6.41-10.354-12.088-7.293c-0.666,0.359-1.405,1.171-2.197,0.843
		c-0.264-0.908,1.029-1.435,1.786-1.824c2.516-1.297,7.164-1.322,9.478,0.563c0.012-0.906-1.294-1.24-2.197-1.543
		c-1.002-0.336-2.256-0.632-3.435-0.563c-0.487-0.996-1.208-1.758-1.099-3.364c3.406,0.409,7.102-0.72,9.34,0.42
		c3.468,1.769,1.163,7.834,2.609,11.642c2.153,0.899,2.426-0.685,3.158-1.824c0.887-1.375,2.823-2.332,3.571-3.364
		c0.282-0.976,0.074-2.449,0.138-3.646c-0.307-0.104-0.896-0.026-1.373-0.28c-0.641-0.764-1.162-2.348-0.963-3.506
		c1.336-0.193,1.131,1.184,1.375,2.104c1.077,0.576,2.527,0.007,3.846,0.421c1.156,0.923-0.094,4.304,1.099,5.188
		c2.626,0.619,3.617-0.802,4.67-1.543c0.767,0.02,0.247,0.797,0.138,1.123c0.685,0.328,1.397,0.629,2.336,0.7
		c0.357-2.3,0.961-4.349,3.57-4.348c-0.682,0.81-1.761,3.269-0.688,4.487c0.466-0.313,0.053-1.013,0.138-1.685
		c0.526-4.212,5.29-3.612,9.478-2.944c1.488-1.691,0.438-4.438,0.688-6.592c0.282-2.46,1.896-4.548,4.942-4.349
		c0.205-0.072,0.347-0.207,0.551-0.279c0.092,0,0.183,0,0.273,0c-0.021,0.396-0.252,0.585-0.273,0.981
		C71.313,69.079,73.755,69.435,74.262,71.771z M70.277,74.575c0.83-0.695,1.455-1.6,1.924-2.665
		c-0.618-0.304-1.854,0.022-2.473-0.28C69.711,72.815,69.811,73.885,70.277,74.575z M41.159,84.953
		c0.444,1.229,1.071,2.272,1.784,3.226c0-1.214,0-2.431,0-3.646C42.209,84.528,41.771,84.833,41.159,84.953z M43.631,88.179
		c0.48-1.146,1.251-1.994,1.648-3.226c-0.559-0.177-1.064-0.408-1.785-0.42C43.585,85.702,43.313,87.242,43.631,88.179z
		 M39.234,86.776c1,0.433,2.089,1.515,3.022,1.543c-0.737-0.883-1.03-2.221-1.923-2.945C40.068,85.944,39.389,86.09,39.234,86.776z
		 M44.182,88.46c1.116-0.448,1.955-1.184,3.021-1.684c-0.26-0.67-0.785-1.067-1.373-1.402C45.375,86.5,44.658,87.358,44.182,88.46z
		 M38.412,89.16c1.146-0.091,2.654,0.188,3.57-0.14c-1.174-0.438-1.983-1.246-3.159-1.684C38.621,87.879,38.396,88.397,38.412,89.16
		z M47.339,87.338c-0.892,0.679-2.002,1.136-2.884,1.822c1.189,0,2.38,0,3.57,0C47.964,88.383,47.938,87.567,47.339,87.338z
		 M38.961,91.687c0.885-0.781,2.18-1.143,3.021-1.963c-1.189,0-2.381,0-3.57,0C38.396,90.579,38.563,91.249,38.961,91.687z
		 M47.613,91.687c0.127-0.666,0.451-1.129,0.412-1.963c-1.146,0.092-2.653-0.188-3.57,0.139
		C45.559,90.421,46.521,91.116,47.613,91.687z M39.234,92.104c0.224,0.711,0.681,1.178,1.375,1.403
		c0.402-1.039,1.461-2.153,1.512-3.086C41.221,91.046,40.262,91.608,39.234,92.104z M45.829,93.509
		c0.629-0.294,1.086-0.761,1.373-1.402c-1.117-0.448-1.955-1.184-3.021-1.684C44.62,91.563,45.339,92.419,45.829,93.509z
		 M41.021,93.931c0.613,0.166,1.067,0.497,1.922,0.42c-0.09-1.17,0.183-2.711-0.137-3.646
		C42.283,91.853,41.646,92.886,41.021,93.931z M43.494,94.351c0.803,0.071,1.24-0.229,1.785-0.42
		c-0.465-1.209-1.143-2.201-1.785-3.227C43.494,91.919,43.494,93.134,43.494,94.351z"/>
	<path fill="#D2C6C2" d="M22.066,80.325c5.457-0.77,10.283,4.507,8.104,10.379c-2.564,6.915-13.441,6.146-14.559-1.403
		C14.859,84.222,18.021,80.896,22.066,80.325z M20.145,82.147c0.973,1.345,1.604,3.039,2.608,4.349c0-1.729,0-3.46,0-5.188
		C21.753,81.454,20.71,81.56,20.145,82.147z M23.439,86.638c0.836-1.578,1.722-3.104,2.609-4.629
		c-0.826-0.277-1.559-0.652-2.609-0.701C23.453,83.004,23.421,85.401,23.439,86.638z M17.671,84.394
		c1.604,0.605,3.091,2.08,4.533,2.383c-1.069-1.293-1.573-3.161-2.747-4.348C18.82,83.042,18.088,83.556,17.671,84.394z
		 M24.127,86.916c1.389-0.871,2.809-1.714,4.258-2.522c-0.367-0.936-1.008-1.588-1.923-1.965
		C25.813,83.965,24.482,85.551,24.127,86.916z M16.848,87.618c0.953-0.354,4.187,0.029,4.943-0.141
		c-1.525-0.826-2.836-1.873-4.533-2.524C17.145,85.772,16.427,86.717,16.848,87.618z M28.521,84.953
		c-1.272,0.989-2.97,1.55-4.121,2.665c1.138-0.21,3.929-0.206,5.082,0C29.366,86.522,29.35,85.324,28.521,84.953z M17.259,90.844
		c1.589-0.81,3.108-1.688,4.533-2.665c-1.694,0-3.388,0-5.083,0C16.6,89.366,17.113,89.917,17.259,90.844z M28.797,90.844
		c0.364-0.751,0.648-1.581,0.688-2.665c-1.649,0.094-3.662-0.187-5.082,0.141C25.936,89.09,27.285,90.05,28.797,90.844z
		 M17.671,91.545c0.624,0.625,1.138,1.363,1.923,1.822c0.768-1.507,2.055-3.229,2.473-4.628
		C20.715,89.791,18.955,90.425,17.671,91.545z M26.462,93.367c0.843-0.495,1.649-1.026,1.923-2.104
		c-1.57-0.732-2.924-1.688-4.395-2.523C24.74,90.358,25.752,91.709,26.462,93.367z M20.145,93.788
		c0.906,0.148,1.445,0.674,2.608,0.563c-0.091-1.686,0.185-3.738-0.137-5.189C21.918,90.833,20.871,92.147,20.145,93.788z
		 M23.439,94.351c1.088,0.084,1.694-0.326,2.473-0.563c-0.635-1.689-1.559-3.084-2.473-4.487
		C23.439,90.983,23.439,92.667,23.439,94.351z"/>
	<path fill="#D2C6C2" d="M62.586,84.953c-0.208,2.028-3.031,3.241-3.434,5.33c-0.411,2.136,0.615,3.702,1.647,5.05
		c-0.354,0.307-1.397,0.124-1.786,0c-1.814-2.061-1.404-6.057-0.275-8.557c0.852-0.582,1.578-1.287,2.063-2.243
		C61.598,84.467,61.77,85.04,62.586,84.953z"/>
	<path fill="#D2C6C2" d="M68.904,85.233c-1.27,2.319-3.381,7.213-0.961,10.238c-0.598,0.002-1.236,0.047-1.649-0.14
		c-1.435-2.554-0.628-6.987,0.138-9.679C67.416,85.678,68.324,85.623,68.904,85.233z"/>
</g>
</svg>
