<?xml version="1.0" standalone="no"?>
<!DOCTYPE svg PUBLIC "-//W3C//DTD SVG 20010904//EN"
 "http://www.w3.org/TR/2001/REC-SVG-20010904/DTD/svg10.dtd">
<svg version="1.0" xmlns="http://www.w3.org/2000/svg"
 width="700.000000pt" height="700.000000pt" viewBox="0 0 700.000000 700.000000"
 preserveAspectRatio="xMidYMid meet">
<metadata>
Created by potrace 1.14, written by Peter Selinger 2001-2017
</metadata>
<g transform="translate(0.000000,700.000000) scale(0.100000,-0.100000)"
fill="#000000" stroke="none">
<path d="M326 5228 c-17 -24 -11 -36 32 -71 29 -24 28 -55 -4 -102 -14 -21
-28 -52 -30 -69 -4 -27 1 -35 39 -63 73 -55 224 -129 412 -203 99 -39 189 -75
200 -80 11 -5 56 -25 100 -45 78 -35 179 -94 172 -101 -4 -4 -166 57 -473 179
-333 133 -415 160 -432 143 -24 -23 -40 -87 -31 -119 23 -80 95 -110 399 -166
116 -22 367 -70 385 -75 40 -9 124 -41 140 -53 18 -13 17 -14 -20 -9 -54 7
-204 34 -224 40 -9 3 -27 7 -41 10 -14 3 -36 7 -50 10 -14 3 -36 8 -50 11
-146 31 -262 47 -355 48 l-100 2 -3 -29 c-2 -16 2 -48 8 -71 11 -40 14 -43 63
-54 89 -19 133 -28 192 -35 17 -2 66 -9 110 -15 44 -5 100 -12 125 -15 108
-13 260 -20 470 -20 l225 -1 3 39 c4 44 -11 87 -44 132 -26 35 -1173 804
-1199 804 -2 0 -11 -10 -19 -22z"/>
<path d="M6362 5143 c-15 -11 -48 -17 -90 -19 -139 -4 -227 -35 -321 -110 -89
-72 -165 -202 -186 -316 -23 -124 -24 -151 -10 -348 18 -261 5 -367 -57 -464
-23 -37 -23 -37 -78 -31 -30 4 -76 10 -102 15 -135 26 -417 39 -518 25 -247
-34 -378 -137 -423 -332 -13 -52 -14 -179 -3 -191 7 -6 -15 -62 -25 -62 -20 0
-52 95 -52 155 0 101 44 243 102 324 12 16 21 32 21 36 0 15 -117 -6 -166 -30
-117 -57 -189 -182 -230 -400 -4 -22 -8 -43 -9 -47 -2 -5 -3 -12 -4 -17 -1 -7
-22 -5 -81 6 -45 9 -175 56 -188 68 -1 1 5 19 13 39 20 47 16 77 -10 86 -16 6
-37 -5 -95 -52 -41 -33 -109 -76 -150 -96 -73 -36 -76 -37 -191 -37 -132 1
-140 4 -173 75 -17 39 -20 68 -23 227 -3 220 -20 296 -71 319 -9 4 -100 10
-202 14 -117 4 -195 12 -212 20 -27 13 -30 21 -44 110 -14 99 -44 140 -107
148 -42 5 -51 -34 -33 -148 11 -73 63 -204 99 -251 13 -17 50 -29 117 -36 25
-3 47 -7 49 -9 2 -2 4 -88 4 -191 0 -147 -3 -196 -15 -224 -16 -36 -59 -76
-250 -231 -52 -43 -106 -92 -119 -109 -13 -18 -29 -37 -35 -43 -5 -6 -29 -46
-53 -89 -90 -163 -149 -195 -285 -157 -37 10 -45 17 -54 48 -16 54 -23 79 -28
107 -2 14 -7 37 -10 53 -5 26 -9 140 -18 557 -3 105 -7 206 -10 225 -21 139
-73 257 -141 319 -52 48 -147 95 -215 106 -25 4 -54 9 -65 11 -40 8 -213 7
-360 -2 -82 -5 -237 -9 -343 -9 -206 0 -195 2 -194 -45 1 -68 19 -129 68 -227
l56 -113 47 -1 c157 -2 401 -65 532 -136 42 -22 92 -84 79 -97 -3 -2 -34 13
-69 35 -226 137 -632 164 -932 60 -93 -32 -232 -108 -271 -148 -25 -26 -37
-49 -40 -73 l-3 -35 55 0 c49 0 63 6 117 42 262 179 566 217 861 108 270 -98
502 -345 592 -627 28 -91 52 -238 43 -264 -4 -11 6 -15 77 -35 36 -10 215 -13
260 -4 20 4 199 14 261 15 10 0 20 12 24 28 3 15 24 62 45 105 84 167 210 290
381 370 108 50 217 80 354 94 67 8 266 7 305 -1 14 -2 40 -5 58 -5 l32 -1 0
-84 c0 -123 3 -121 -95 -71 -254 129 -543 100 -767 -79 -188 -150 -276 -389
-245 -662 16 -133 82 -275 172 -366 49 -50 132 -109 181 -129 16 -6 43 -18 61
-25 69 -30 184 -46 293 -41 143 7 213 24 315 75 237 118 363 330 363 613 0
142 -34 243 -141 419 l-40 65 0 137 0 137 58 60 c32 34 67 64 78 67 11 4 38
-4 66 -19 25 -14 80 -35 121 -46 41 -12 94 -29 118 -37 l43 -16 -6 -56 c-10
-93 -33 -161 -96 -279 l-59 -112 43 5 c67 8 148 34 194 61 90 53 172 171 218
317 12 38 25 64 28 58 17 -27 33 -135 31 -200 -6 -120 -30 -202 -148 -495 -95
-234 -118 -321 -122 -457 -4 -107 9 -184 43 -262 19 -45 29 -49 117 -54 61 -3
68 -2 63 14 -3 9 -20 56 -37 104 -70 199 -35 380 109 561 64 80 134 148 291
281 223 189 307 290 349 418 13 39 62 88 88 88 11 0 13 -7 7 -32 -4 -18 -8
-46 -8 -63 -1 -28 2 -30 104 -63 263 -84 364 -105 510 -105 156 1 234 26 418
137 183 109 275 146 357 140 17 -1 42 -2 56 -3 37 -2 64 -65 63 -147 -1 -50
-7 -72 -39 -130 -99 -179 -108 -201 -108 -264 0 -78 11 -89 57 -61 87 54 184
208 223 351 24 90 24 257 0 326 -28 81 -72 141 -114 155 -35 11 -134 8 -198
-7 -34 -7 -162 -10 -169 -3 -2 2 -7 51 -10 109 -8 131 -13 182 -26 245 -5 28
-12 68 -16 90 -3 22 -16 83 -29 135 -13 52 -23 95 -22 95 101 53 135 89 225
240 37 63 65 99 73 96 49 -14 71 -11 114 13 54 32 57 52 20 130 -35 74 -90
133 -203 218 -116 86 -185 149 -212 193 -19 30 -19 35 -5 76 24 66 7 86 -43
52z m145 -626 c51 -2 95 -6 99 -10 18 -17 -82 -180 -164 -267 l-51 -54 -20 45
c-11 24 -23 60 -26 78 -3 19 -8 37 -10 41 -3 5 -9 153 -6 173 1 5 20 5 44 2
23 -3 83 -7 134 -8z m-3306 -1504 c2 -70 1 -395 -2 -398 -15 -14 -199 317
-199 358 0 11 2 18 5 15 3 -3 38 5 78 18 88 28 117 30 118 7z m208 -11 c29 -9
55 -22 58 -28 5 -14 -46 -117 -123 -252 -30 -51 -54 -98 -54 -105 0 -7 -6 -3
-12 8 -10 17 -15 238 -9 388 1 16 7 18 44 12 23 -4 66 -14 96 -23z m-466 -118
c14 -17 47 -71 73 -120 26 -49 60 -108 75 -131 25 -37 26 -43 11 -43 -37 0
-321 162 -330 188 -5 16 121 150 134 143 6 -3 23 -20 37 -37z m707 -41 c52
-59 51 -77 -2 -103 -24 -11 -74 -41 -113 -66 -81 -52 -130 -78 -164 -89 -27
-8 -28 -11 108 232 l63 111 34 -20 c19 -11 52 -40 74 -65z m-867 -169 c29 -15
95 -52 147 -83 52 -31 108 -63 123 -71 53 -27 5 -33 -250 -31 l-131 1 4 48 c4
41 28 132 41 155 6 10 8 10 66 -19z m959 9 c28 -33 39 -63 45 -128 l6 -65
-202 0 c-123 0 -200 4 -196 9 6 10 125 85 205 129 25 13 59 35 75 48 36 28 47
29 67 7z m-667 -265 c8 -8 -59 -53 -175 -118 -52 -29 -110 -64 -129 -78 l-34
-25 -18 24 c-31 41 -60 186 -39 199 12 7 388 6 395 -2z m711 3 c15 -1 8 -60
-18 -146 -11 -38 -22 -72 -24 -74 -3 -3 -86 43 -169 94 -22 13 -76 44 -119 69
l-80 44 40 7 c21 4 44 8 49 9 8 3 264 -1 321 -3z m-686 -108 c-16 -55 -30 -84
-84 -172 -30 -49 -62 -105 -71 -125 l-17 -35 -36 18 c-21 11 -49 32 -63 48
-26 27 -64 92 -57 97 2 1 48 27 103 58 55 30 129 74 164 97 35 22 65 41 67 41
1 0 -1 -12 -6 -27z m415 -68 c66 -39 135 -77 152 -84 l33 -13 -22 -39 c-12
-22 -37 -53 -55 -69 -32 -30 -80 -57 -86 -49 -26 36 -187 333 -187 344 0 8 25
-6 165 -90z m-313 -90 c0 -55 0 -139 -1 -187 l-1 -86 -50 4 c-40 3 -153 37
-169 50 -2 1 6 15 16 31 29 41 108 182 150 265 34 68 37 71 45 48 6 -14 10
-70 10 -125z m134 42 c75 -120 140 -256 128 -267 -25 -23 -156 -51 -194 -41
-3 0 -5 93 -5 205 0 112 3 202 7 200 4 -3 33 -46 64 -97z"/>
<path d="M810 3527 c-3 -3 -29 -7 -58 -10 -139 -14 -344 -107 -468 -212 -99
-85 -190 -224 -234 -355 -72 -216 -60 -508 29 -704 172 -379 619 -573 1055
-456 343 92 577 364 632 735 6 40 6 202 0 243 -40 271 -199 503 -441 645 -55
32 -235 102 -235 92 0 -2 -12 0 -27 6 -30 11 -244 25 -253 16z m35 -423 c1
-162 -2 -294 -5 -294 -8 0 -77 115 -171 285 -45 83 -93 164 -106 181 -22 29
-22 32 -6 46 33 27 94 49 186 67 51 10 94 16 97 13 3 -2 5 -136 5 -298z m290
254 c50 -17 91 -32 92 -33 2 -1 -45 -84 -103 -186 -58 -101 -124 -219 -147
-262 -22 -43 -43 -74 -46 -68 -8 12 -6 575 2 588 9 14 92 -2 202 -39z m-638
-123 c34 -40 100 -152 168 -280 26 -49 62 -111 81 -138 l34 -47 -27 6 c-44 11
-134 58 -262 139 -65 40 -143 86 -174 101 -32 16 -57 32 -57 38 0 25 178 215
202 216 3 0 19 -16 35 -35z m844 7 c59 -38 111 -94 139 -148 21 -44 21 -46 4
-59 -11 -8 -35 -22 -54 -31 -19 -10 -120 -68 -224 -131 -104 -62 -191 -111
-194 -109 -8 8 62 149 132 265 35 58 77 131 93 162 50 95 42 90 104 51z m-973
-338 c37 -20 72 -40 77 -44 6 -5 26 -17 45 -28 19 -11 76 -45 125 -76 50 -30
97 -60 105 -65 9 -6 -80 -8 -233 -6 -137 1 -265 -1 -285 -6 -44 -10 -50 -5
-57 44 -5 28 2 68 27 147 l33 108 48 -19 c26 -10 78 -35 115 -55z m1176 61
c13 -9 33 -37 44 -63 20 -47 25 -68 37 -173 l7 -57 -63 6 c-80 8 -373 8 -456
0 -35 -3 -63 -2 -63 1 0 12 114 88 247 164 75 43 155 91 177 107 50 35 42 33
70 15z m-824 -366 c0 -8 -257 -167 -365 -225 -132 -72 -145 -78 -148 -73 -14
21 -61 196 -64 244 l-5 60 291 0 c160 0 291 -3 291 -6z m903 -55 c-3 -54 -41
-199 -63 -234 -11 -18 -22 -13 -225 109 -77 46 -171 101 -210 122 -38 21 -70
41 -70 45 0 5 18 10 40 12 22 1 44 4 50 6 5 1 115 1 245 0 l235 -2 -2 -58z
m-178 -271 c30 -15 55 -32 55 -38 -1 -17 -43 -91 -71 -123 -21 -25 -90 -77
-136 -105 -8 -5 -22 13 -42 54 -27 53 -113 208 -163 294 -10 17 -36 65 -58
107 l-39 77 199 -120 c109 -65 224 -131 255 -146z m-704 201 c-22 -56 -82
-166 -164 -302 -31 -51 -66 -110 -77 -132 -19 -37 -22 -39 -43 -29 -33 18
-198 190 -194 203 5 18 131 101 272 181 72 40 150 87 175 104 24 16 46 28 48
27 1 -2 -6 -25 -17 -52z m104 -302 l0 -287 -35 0 c-47 -1 -104 11 -165 34 -27
11 -62 22 -77 25 l-26 6 28 57 c15 32 76 141 134 243 59 101 109 195 113 208
4 17 8 21 17 12 8 -8 11 -99 11 -298z m110 257 c11 -17 27 -42 35 -55 89 -138
200 -347 215 -404 6 -24 2 -26 -82 -53 -110 -35 -193 -43 -194 -19 -4 75 -3
562 1 562 3 0 15 -14 25 -31z"/>
<path d="M5251 2976 c-39 -62 -107 -135 -167 -178 -36 -26 -46 -41 -73 -116
-101 -288 -104 -609 -5 -803 44 -88 62 -107 116 -120 48 -11 142 -9 155 4 3 4
-17 40 -46 81 -172 249 -195 499 -63 675 30 39 167 194 219 246 21 22 80 120
91 154 17 50 15 61 -12 61 -13 0 -48 11 -78 25 -80 37 -97 34 -137 -29z"/>
<path d="M6215 2941 c-22 -19 -105 -37 -185 -40 -47 -2 -86 -4 -87 -5 -4 -3
-53 -199 -58 -230 -3 -17 -12 -67 -19 -111 -29 -166 -39 -380 -22 -510 15
-126 63 -268 94 -280 10 -4 54 -9 100 -10 l83 -3 -24 31 c-36 49 -68 124 -88
205 -19 77 -23 234 -9 312 5 25 11 61 14 80 17 108 95 328 172 483 44 86 47
95 29 78z"/>
</g>
</svg>
